<?xml version="1.0" encoding="utf-8"?>
<!-- Generator: Adobe Illustrator 22.1.0, SVG Export Plug-In . SVG Version: 6.00 Build 0)  -->
<svg version="1.1" id="Layer_1" xmlns="http://www.w3.org/2000/svg" xmlns:xlink="http://www.w3.org/1999/xlink" x="0px" y="0px"
	 viewBox="0 0 24 24" style="enable-background:new 0 0 24 24;" xml:space="preserve">
<style type="text/css">
	.st0{fill:#FFFFFF;}
</style>
<path class="st0" d="M12.3,1.9C7.7,1.7,3.9,5.4,3.9,10v5.3c0,1.3,1.1,2.4,2.4,2.4c0.9,0,1.6,0.7,1.6,1.6v2c0,0.4,0.3,0.8,0.7,0.8
	c0.5,0.1,0.9-0.3,0.9-0.8c0,0.4,0.4,0.8,0.8,0.8c0.4,0,0.8-0.4,0.8-0.8c0,0.4,0.4,0.8,0.8,0.8c0.4,0,0.8-0.4,0.8-0.8
	c0,0.4,0.4,0.8,0.8,0.8c0.4,0,0.8-0.4,0.8-0.8c0,0.5,0.4,0.9,0.9,0.8c0.4-0.1,0.7-0.4,0.7-0.8v-2c0-0.9,0.7-1.6,1.6-1.6
	c1.3,0,2.4-1.1,2.4-2.4v-5.1C20.1,5.8,16.7,2,12.3,1.9z M8.4,13.6c-1.1,0-2-0.9-2-2s0.9-2,2-2c1.1,0,2,0.9,2,2S9.5,13.6,8.4,13.6z
	 M10.4,16.5l1.6-2l1.6,2H10.4z M15.6,13.6c-1.1,0-2-0.9-2-2s0.9-2,2-2c1.1,0,2,0.9,2,2S16.8,13.6,15.6,13.6z"/>
</svg>
