<?xml version="1.0" encoding="utf-8"?>
<!-- Generator: Adobe Illustrator 22.1.0, SVG Export Plug-In . SVG Version: 6.00 Build 0)  -->
<svg version="1.1" id="Layer_1" xmlns="http://www.w3.org/2000/svg" xmlns:xlink="http://www.w3.org/1999/xlink" x="0px" y="0px"
	 viewBox="0 0 24 24" style="enable-background:new 0 0 24 24;" xml:space="preserve">
<style type="text/css">
	.st0{fill:#FFFFFF;}
</style>
<path class="st0" d="M15.9,5c-1.1,0-1.8,0.9-1.8,0.9s-0.3-0.3-0.8-0.6c0-0.5,0.1-1.8,1.1-2.6c0.1-0.1,0.2-0.2,0.2-0.4
	c0-0.1-0.1-0.3-0.2-0.3l-0.9-0.4c-0.1-0.1-0.3-0.1-0.5,0c-1.6,1.2-2.1,3.1-2.3,3.6c-0.6,0.3-0.9,0.6-0.9,0.6S9.2,5,8.1,5
	c-3.8,0-6.9,3.7-6.9,8.2s3.1,8.2,6.9,8.2c1.1,0,1.8-0.9,1.8-0.9s0.8,0.9,2.1,0.9c1.3,0,2.1-0.9,2.1-0.9s0.7,0.9,1.8,0.9
	c3.8,0,6.9-3.7,6.9-8.2S19.7,5,15.9,5z M15.9,9.4l1.7,2.2h-3.5L15.9,9.4z M8.5,9.4l1.7,2.2H6.8L8.5,9.4z M13.2,18l-0.3-1.2h-1.7
	L10.8,18c-4.6-0.6-5.8-4.7-5.8-4.7s1.2,0.5,3,0.9l0.4,1.5l1.3,0.2l0.3-1.4c0.6,0.1,1.2,0.1,1.8,0.1c0.6,0,1.2,0,1.8-0.1l0.3,1.4
	l1.3-0.2l0.4-1.5c1.8-0.4,3-0.9,3-0.9S17.8,17.4,13.2,18z"/>
</svg>
