<?xml version="1.0" encoding="utf-8"?>
<!-- Generator: Adobe Illustrator 22.1.0, SVG Export Plug-In . SVG Version: 6.00 Build 0)  -->
<svg version="1.1" id="Layer_1" xmlns="http://www.w3.org/2000/svg" xmlns:xlink="http://www.w3.org/1999/xlink" x="0px" y="0px"
	 viewBox="0 0 24 24" style="enable-background:new 0 0 24 24;" xml:space="preserve">
<style type="text/css">
	.st0{fill:#FFFFFF;}
</style>
<path class="st0" d="M17.4,15.7c-1.2-2.6-2.9-7.1-3.1-11.2l3.4,0.7c0.2,0,0.4,0,0.5-0.2c0.1-0.1,0.1-0.3,0-0.5
	c-0.1-0.1-1.9-2.7-4.6-3.1c-0.1,0-0.2,0-0.3,0.1C8.7,4.9,6.8,12.1,6.1,15.9c-3,0.7-4.7,1.9-4.7,3.2c0,2.5,5.6,3.9,10.8,3.9
	c5.2,0,10.8-1.4,10.8-3.9C23,17.6,20.9,16.4,17.4,15.7z M10.4,19.8C10.4,19.8,10.4,19.8,10.4,19.8c-0.1,0-0.5-0.1-0.5-0.5l0.1-1.7
	c0-0.2,0.2-0.4,0.5-0.4l1.7,0.1c0.2,0,0.4,0.2,0.4,0.5l-0.1,1.7c0,0.2-0.2,0.4-0.5,0.4C11.5,20,10.9,19.9,10.4,19.8z M6,16.4
	c0.7,0.6,1.8,1.2,3.2,1.5l-0.1,1.4c0,0.1,0,0.2,0,0.3c-1.6-0.4-2.9-1.3-3.3-1.9C5.9,17.6,5.9,17.1,6,16.4z M13.4,19.6l0.1-1.4
	c1.4-0.1,3.2-1,4-1.8c0.3,0.5,0.5,0.9,0.6,1.2c-0.5,0.8-2.2,2.2-4.7,2.4C13.4,19.8,13.4,19.7,13.4,19.6z"/>
</svg>
