<?xml version="1.0" encoding="utf-8"?>
<!-- Generator: Adobe Illustrator 23.0.0, SVG Export Plug-In . SVG Version: 6.00 Build 0)  -->
<svg version="1.1" id="Layer_1" xmlns="http://www.w3.org/2000/svg" xmlns:xlink="http://www.w3.org/1999/xlink" x="0px" y="0px"
	 viewBox="0 0 24 24" style="enable-background:new 0 0 24 24;" xml:space="preserve">
<style type="text/css">
	.st0{fill:#FFFFFF;}
</style>
<path class="st0" d="M23.2,3.9c0,0-2,0.1-4.4,1.5c-2.4,1.4-3.1,3.2-3.1,3.2c0.8,2.7-0.7,4.3-0.7,4.3L14,12.1l0.1,1.4l-1,0.6
	l-1.1-0.8l0.1,1.4c0,0-2.1,0.5-4-1.5c0,0-1.9-0.3-4.3,1.1c-2.4,1.4-3.5,3.1-3.5,3.1c1.9-1.1,4.3-0.4,5.4,1.5
	c0.2,0.3,0.3,0.6,0.4,0.9c0.1-0.1,0.2-0.2,0.3-0.2c1.6-0.9,3.5-0.6,4.7,0.6c0.2-0.8,0.7-1.6,1.4-2.1c1.4-0.8,2.8,0.1,4.1,1.1
	c-0.2-1.6-0.3-3.3,1.1-4.2c0.8-0.5,1.7-0.5,2.5-0.2c-0.4-1.7,0.3-3.5,1.8-4.4c0.1-0.1,0.2-0.1,0.4-0.2c-0.2-0.2-0.4-0.5-0.6-0.8
	C20.7,7.4,21.3,5,23.2,3.9z M13.9,15.5c-0.1,0.2-0.2,0.3-0.4,0.3c0,0-0.1,0-0.1,0l-0.6-0.2c-0.2-0.1-0.4-0.3-0.3-0.6
	c0.1-0.2,0.3-0.4,0.6-0.3l0.6,0.2C13.8,15,14,15.3,13.9,15.5z M15.6,14l-0.2,0.6C15.4,14.8,15.2,15,15,15c0,0-0.1,0-0.1,0
	c-0.2-0.1-0.4-0.3-0.3-0.6l0.2-0.6c0.1-0.2,0.3-0.4,0.6-0.3C15.6,13.5,15.7,13.8,15.6,14z"/>
</svg>
