<?xml version="1.0" encoding="utf-8"?>
<!-- Generator: Adobe Illustrator 23.0.0, SVG Export Plug-In . SVG Version: 6.00 Build 0)  -->
<svg version="1.1" id="Layer_1" xmlns="http://www.w3.org/2000/svg" xmlns:xlink="http://www.w3.org/1999/xlink" x="0px" y="0px"
	 viewBox="0 0 24 24" style="enable-background:new 0 0 24 24;" xml:space="preserve">
<style type="text/css">
	.st0{fill:#FFFFFF;}
</style>
<path class="st0" d="M18.7,10.7c0-0.9,0-1.8-0.2-2.9c-0.7-3.8-4.3-6.4-8-5.7c-3.8,0.7-6.3,4.3-5.6,8.2c0,0.1,0,0.1,0,0.2
	c-0.4,1.3-2,2.6-1.3,3.4c0.6,0.6,1.5,0,2.1-0.4c2,5,6.6,8.1,13,9.4c-2.3-3.3-1.2-5.8-0.5-9.1c0.6,0.3,2,0.9,2.5,0
	C21.3,12.8,19.7,12.1,18.7,10.7z M9.6,7.9C9.1,8.8,8.4,9.3,8,9.1C7.6,8.8,7.7,7.9,8.2,7c0.5-0.9,1.3-1.4,1.6-1.2
	C10.2,6.1,10.1,7,9.6,7.9z M12.3,13.2c-0.6,0.2-1.4-0.3-1.7-1.2c-0.3-0.9-0.1-1.8,0.5-2c0.6-0.2,1.4,0.3,1.7,1.2
	C13.2,12.1,12.9,13,12.3,13.2z M15.1,9.1c-0.4,0.2-1.1-0.3-1.6-1.2c-0.5-0.9-0.6-1.8-0.2-2c0.4-0.2,1.1,0.3,1.6,1.2
	C15.4,7.9,15.5,8.8,15.1,9.1z"/>
</svg>
