<?xml version="1.0" encoding="utf-8"?>
<!-- Generator: Adobe Illustrator 22.1.0, SVG Export Plug-In . SVG Version: 6.00 Build 0)  -->
<svg version="1.1" id="Layer_1" xmlns="http://www.w3.org/2000/svg" xmlns:xlink="http://www.w3.org/1999/xlink" x="0px" y="0px"
	 viewBox="0 0 24 24" style="enable-background:new 0 0 24 24;" xml:space="preserve">
<style type="text/css">
	.st0{fill:#FFFFFF;}
</style>
<g>
	<path class="st0" d="M18.4,0c-2.9,0-4.8,1.4-4.9,1.5c-0.2,0.2-0.2,0.4-0.1,0.6c0.2,0.2,0.4,0.2,0.7,0.1c0,0,1.8-1.3,4.4-1.3
		c2.7,0,4.6,1.8,4.6,4.2c0,2.1-1.6,3.6-2.5,4.3c-0.4-1.2-1.3-2-1.3-2l-1.1,0.7l-1-1.7l-0.9,0.8l-1.2-1.7l-0.9,1l-0.9-1l-1,1.1
		L11.4,6L11,6.5v1.9c0,3.1-2.5,5.6-5.6,5.6c-0.5,0-0.9-0.1-1.4-0.2v9c0,0.3,0.2,0.5,0.5,0.5h1.9c0.3,0,0.5-0.2,0.5-0.5
		c0-3.2,0.4-6.3,0.9-6.5c0.5,0.2,0.9,3.3,0.9,6.5c0,0.3,0.2,0.5,0.5,0.5H11c0.3,0,0.5-0.2,0.5-0.5c0-2.3,0.6-8.4,3.3-8.4
		s3.3,6,3.3,8.4c0,0.3,0.2,0.5,0.5,0.5h1.9c0.3,0,0.5-0.2,0.5-0.5V10.5c0.5-0.5,3-2.4,3-5.4C24,2.2,21.6,0,18.4,0z"/>
	<path class="st0" d="M9.8,2.4c-0.2-0.1-0.4,0-0.5,0.1L7.5,4.2c-1.3-0.7-2.9-0.7-4.2,0L1.5,2.5C1.4,2.3,1.2,2.3,1,2.4
		c-0.1,0-0.2,0.2-0.2,0.4v5.6c0,2.6,2.1,4.7,4.7,4.7s4.7-2.1,4.7-4.7V2.8C10.1,2.6,9.9,2.4,9.8,2.4z M4.9,8.2
		C4.8,8.3,4.6,8.4,4.5,8.4s-0.2,0-0.3-0.1L2.8,7.4C2.6,7.2,2.5,6.9,2.7,6.7c0.1-0.2,0.4-0.3,0.6-0.1l1.4,0.9C4.9,7.7,5,7.9,4.9,8.2z
		 M8,7.4L6.6,8.3c-0.1,0-0.2,0.1-0.3,0.1C6.2,8.4,6,8.3,5.9,8.2c-0.1-0.3,0-0.5,0.2-0.7l1.4-0.9C7.7,6.4,8,6.5,8.1,6.7
		C8.3,6.9,8.2,7.2,8,7.4z"/>
</g>
</svg>
